<svg xmlns="http://www.w3.org/2000/svg" width="25" height="6.071" viewBox="0 0 25 6.071">
  <g id="Group_70" data-name="Group 70" transform="translate(-1792.71 -237.75)">
    <g id="Group_69" data-name="Group 69">
      <path id="Path_68" data-name="Path 68" d="M1808.245,240.786a3.036,3.036,0,1,0-3.035,3.035,3.039,3.039,0,0,0,3.035-3.035Zm-3.035,1.785a1.785,1.785,0,1,1,1.785-1.785,1.787,1.787,0,0,1-1.785,1.785Zm0,0" fill="#757d80"/>
      <path id="Path_69" data-name="Path 69" d="M1795.745,237.75a3.035,3.035,0,1,0,3.036,3.036,3.039,3.039,0,0,0-3.036-3.036Zm0,4.821a1.785,1.785,0,1,1,1.786-1.785,1.787,1.787,0,0,1-1.786,1.785Zm0,0" fill="#757d80"/>
      <path id="Path_70" data-name="Path 70" d="M1814.674,237.75a3.035,3.035,0,1,0,3.036,3.036,3.04,3.04,0,0,0-3.036-3.036Zm0,4.821a1.785,1.785,0,1,1,1.786-1.785,1.787,1.787,0,0,1-1.786,1.785Zm0,0" fill="#757d80"/>
    </g>
  </g>
</svg>
