<svg xmlns="http://www.w3.org/2000/svg" width="6.107" height="25" viewBox="0 0 6.107 25">
  <g id="Group_582" data-name="Group 582" transform="translate(-1175.902 -1361.578)">
    <path id="Path_218" data-name="Path 218" d="M1178.961,1371.043a3.036,3.036,0,1,0,3.03,3.041,3.04,3.04,0,0,0-3.03-3.041Zm1.78,3.039a1.786,1.786,0,1,1-1.782-1.789,1.787,1.787,0,0,1,1.782,1.789Zm0,0" fill="#f6f7fb"/>
    <path id="Path_219" data-name="Path 219" d="M1175.9,1383.537a3.036,3.036,0,1,0,3.041-3.03,3.039,3.039,0,0,0-3.041,3.03Zm4.821.009a1.786,1.786,0,1,1-1.782-1.789,1.787,1.787,0,0,1,1.782,1.789Zm0,0" fill="#f6f7fb"/>
    <path id="Path_220" data-name="Path 220" d="M1175.937,1364.608a3.036,3.036,0,1,0,3.042-3.03,3.04,3.04,0,0,0-3.042,3.03Zm4.822.009a1.786,1.786,0,1,1-1.783-1.789,1.788,1.788,0,0,1,1.783,1.789Zm0,0" fill="#f6f7fb"/>
  </g>
</svg>
